PathFileType	3	(X/Y/Z)	D:\minhoCalibration\240510\subject1_KPNP\preferred\preferred11.trc
DataRate	CameraRate	NumFrames	NumMarkers	Units	OrigDataRate	OrigDataStartFrame	OrigNumFrames
200.0	200.0	36	10	mm	200.0	326	246	
Frame#	Time	Left_Ankle_Outer1			Left_Ankle_Inner1			Left_Knee_Outer1			Left_Knee_Inner1			Left_Wrist1			Right_Wrist1			Right_Knee_Inner1			Right_Knee_Outer1			Right_Ankle_Inner1			Right_Ankle_Outer1			
		X1	Y1	Z1	X2	Y2	Z2	X3	Y3	Z3	X4	Y4	Z4	X5	Y5	Z5	X6	Y6	Z6	X7	Y7	Z7	X8	Y8	Z8	X9	Y9	Z9	X10	Y10	Z10	
326	1.62	-460.88666	117.60541	-591.07532	-518.05194	116.6717	-579.22186	-518.79102	566.7854	-580.29895	-604.86804	506.96875	-625.20691	-549.38452	987.13086	-729.0979	-766.7113	995.4436	-1007.8584	-729.58441	518.12195	-963.117	-771.20593	549.86621	-1059.4863	-649.02142	110.65665	-1111.3385	-729.48737	106.76017	-1185.0748
327	1.625	-461.37424	118.02308	-590.89679	-518.36328	117.18484	-578.64185	-518.36664	567.46484	-578.65247	-605.30341	508.09009	-621.92242	-549.07788	987.28558	-728.53998	-766.44489	995.5719	-1007.4649	-729.34094	517.97809	-962.93524	-770.51318	549.72589	-1059.11	-648.99622	110.58627	-1111.272	-729.49579	106.42066	-1184.9965
328	1.63	-461.77756	118.4565	-590.73077	-518.66284	117.66959	-578.04675	-517.99194	568.13373	-576.92023	-605.71021	508.18103	-620.27594	-548.8656	987.45496	-727.9007	-766.34509	995.46368	-1006.7096	-729.1839	517.79755	-962.65002	-770.05359	549.74695	-1058.9713	-648.87854	110.58029	-1111.2272	-729.35687	106.76012	-1184.9766
329	1.635	-462.16974	118.86109	-590.52338	-519.00159	118.15813	-577.58777	-517.62604	568.73352	-575.10516	-605.93726	509.14188	-618.17743	-548.50452	987.64093	-727.10358	-766.02832	995.23242	-1006.7062	-728.83417	517.64355	-962.44507	-769.55328	549.76782	-1058.7997	-648.8609	110.54924	-1111.1151	-729.16058	106.54914	-1184.8802
330	1.64	-462.53934	119.22576	-590.40436	-519.31354	118.59163	-577.21368	-517.26105	569.38336	-573.21033	-606.11871	509.98236	-615.20447	-548.30701	987.80963	-726.38953	-766.09308	994.75018	-1004.4594	-728.42694	517.58533	-962.13641	-769.04755	549.77856	-1058.5532	-648.75751	110.52921	-1111.0582	-729.20306	106.42143	-1184.9816
331	1.645	-462.98019	119.64381	-590.2204	-519.66333	119.04292	-576.771	-516.91229	569.96454	-571.28125	-605.87311	511.33258	-611.44629	-547.94739	987.97266	-725.54541	-765.57202	994.7702	-1004.1431	-728.13501	517.47131	-961.81384	-768.72827	549.995	-1058.5991	-648.67499	110.5274	-1110.9656	-729.14642	105.97211	-1184.7679
332	1.65	-463.3902	120.02672	-590.00775	-520.00262	119.50031	-576.20923	-516.63367	570.55078	-569.224	-605.97308	512.21124	-608.88873	-547.53571	988.15588	-724.61041	-764.94037	994.78418	-1003.8264	-727.96606	517.25256	-961.47516	-768.21161	550.07782	-1058.3431	-648.69879	110.47169	-1110.8344	-728.97498	106.41926	-1184.9424
333	1.655	-463.7901	120.49986	-589.82819	-520.27167	119.89429	-575.77423	-516.29932	571.08392	-567.10376	-606.0246	513.00275	-606.36609	-547.16858	988.28522	-723.73816	-764.74268	993.98364	-1002.1097	-727.74677	517.14282	-961.00098	-767.50116	549.9054	-1057.7822	-648.45007	110.37145	-1110.7561	-728.87555	106.48248	-1184.8765
334	1.66	-464.20901	120.8671	-589.62817	-520.6062	120.30412	-575.29236	-515.96564	571.63068	-564.89752	-606.09888	513.841	-603.75073	-546.64105	988.42419	-722.6098	-763.86426	994.24628	-1001.9642	-727.58905	516.98859	-960.50171	-766.9668	549.9259	-1057.4635	-649.19727	110.42908	-1110.3193	-728.78644	106.5005	-1184.8462
335	1.665	-464.50385	121.32836	-589.40369	-520.87756	120.81963	-574.6767	-515.64941	572.15771	-562.64142	-606.13885	514.5827	-601.14185	-546.21429	988.48517	-721.5556	-763.48901	993.8822	-1000.3376	-727.38446	516.78729	-959.99097	-766.4798	549.97168	-1057.0375	-648.64288	110.311	-1110.3602	-728.60095	106.66469	-1184.7185
336	1.67	-464.88086	121.69534	-589.18365	-521.14062	121.24737	-574.25305	-515.32233	572.66656	-560.28894	-606.20526	515.38373	-598.4126	-545.63226	988.617	-720.35822	-763.0387	993.24103	-999.04309	-727.2124	516.67487	-959.41931	-766.41345	550.23932	-1057.1643	-648.57111	110.33956	-1110.1284	-728.54218	106.65285	-1184.6207
337	1.675	-465.32266	122.06642	-588.93134	-521.53406	121.65111	-573.71057	-514.90216	573.17432	-557.89008	-606.29968	516.16418	-595.5835	-545.06372	988.64697	-719.16113	-762.18707	993.29962	-998.09473	-727.03033	516.49554	-958.80646	-765.97913	550.17694	-1056.6589	-648.59851	110.32666	-1109.8851	-728.44989	106.07391	-1184.2932
338	1.68	-465.70749	122.43423	-588.71954	-521.87939	122.11545	-573.1275	-514.45258	573.69635	-555.44116	-606.20203	516.92444	-592.82764	-544.54614	988.67957	-717.90381	-761.40741	993.31299	-997.07758	-726.74481	516.27441	-958.20721	-765.12451	549.86011	-1055.4762	-648.64722	110.10186	-1109.7654	-728.35175	106.11104	-1184.1393
339	1.685	-466.15662	122.77415	-588.35956	-522.17505	122.50188	-572.58746	-513.93695	574.2041	-552.90991	-606.08105	517.64954	-589.90967	-543.8902	988.67462	-716.5072	-760.69086	993.04761	-995.89844	-726.39642	516.09387	-957.52271	-764.63538	549.76855	-1054.5426	-648.48346	110.03365	-1109.6272	-728.19598	106.83093	-1184.1821
340	1.69	-466.53146	123.19799	-588.10583	-522.68817	122.98628	-572.10931	-513.39935	574.73657	-550.33679	-605.93048	518.41669	-586.90051	-543.22931	988.61896	-715.24933	-760.09161	992.43115	-994.46942	-726.13849	515.82318	-956.7912	-764.30682	549.76624	-1053.9961	-648.17932	109.91164	-1109.5166	-728.0083	107.11797	-1183.9492
341	1.695	-466.99451	123.54214	-587.80048	-523.01117	123.42287	-571.50159	-512.73639	575.23517	-547.69061	-605.67883	519.12866	-583.80518	-542.57623	988.52606	-713.85339	-759.39899	992.09668	-993.12646	-725.84686	515.54352	-956.02771	-763.90259	549.62982	-1053.265	-648.22998	109.81195	-1109.2919	-728.07654	106.48621	-1183.6981
342	1.7	-467.47412	123.98694	-587.49915	-523.40613	123.86247	-570.86438	-512.00372	575.74152	-545.05615	-605.44507	519.79736	-580.6499	-541.90881	988.37378	-712.51862	-758.65802	991.69293	-992.24518	-725.50641	515.31903	-955.23352	-763.48376	549.5047	-1052.42	-647.65118	110.06059	-1109.3547	-728.00104	106.59236	-1183.5332
343	1.705	-468.00995	124.31124	-587.2135	-523.67969	124.24739	-570.08069	-511.24268	576.26331	-542.28156	-605.10089	520.5069	-577.36749	-541.19568	988.21051	-711.14111	-757.93744	991.43085	-990.37872	-725.1004	515.02466	-954.35754	-763.40875	549.61407	-1051.9569	-647.36072	109.78368	-1109.1869	-727.89502	106.73908	-1183.413
344	1.71	-468.41473	124.84577	-586.8927	-524.13495	124.73769	-569.40289	-510.40869	576.78967	-539.44562	-604.67267	521.21576	-574.08575	-540.41071	988.03253	-709.71271	-757.117	991.04089	-988.93512	-724.68188	514.75183	-953.52686	-762.55731	549.28058	-1050.6288	-647.26318	109.45302	-1109.1381	-727.85773	106.7515	-1183.3226
345	1.715	-469.06329	125.1872	-586.55676	-524.57483	125.20601	-568.7381	-509.49829	577.31464	-536.58228	-604.23297	521.91193	-570.70569	-539.52759	987.8006	-708.28503	-756.60712	990.43347	-986.7605	-723.9906	514.43268	-952.84082	-762.16272	549.2063	-1049.6674	-648.12341	109.53193	-1108.5674	-727.73956	107.00802	-1183.1204
346	1.72	-469.69403	125.53334	-586.25439	-524.98151	125.77346	-567.99164	-508.50284	577.80865	-533.67023	-603.664	522.66174	-567.26727	-538.70026	987.52637	-706.82294	-755.61432	990.24133	-985.92456	-723.71039	514.10828	-951.86078	-761.74133	549.04407	-1048.8597	-648.17004	109.94518	-1108.2177	-727.66156	106.89075	-1182.9396
347	1.725	-470.35248	125.98254	-585.91614	-525.4892	126.20032	-567.38104	-507.44193	578.30627	-530.76062	-603.12317	523.39923	-563.7149	-537.74561	987.22894	-705.35345	-755.16724	990.13214	-983.61011	-723.22345	513.76776	-950.95966	-761.27148	548.93933	-1048.0164	-648.39905	109.50317	-1108.1177	-727.55347	106.93459	-1182.7876
348	1.73	-470.98907	126.36256	-585.67737	-526.08234	126.73933	-566.72723	-506.30118	578.78955	-527.75183	-602.39099	524.11975	-560.1272	-536.82129	986.86859	-703.79553	-754.05969	989.5481	-982.78284	-722.70837	513.4328	-949.94098	-760.77875	548.83459	-1047.1005	-648.06018	109.38029	-1107.974	-727.47272	107.06651	-1182.6143
349	1.735	-471.72406	126.83129	-585.39551	-526.58484	127.33105	-565.95233	-505.12183	579.33124	-524.68732	-601.79028	524.84357	-556.42871	-535.77307	986.43365	-702.33374	-753.27155	989.15454	-981.15112	-721.97052	513.10486	-949.20392	-760.70062	548.96558	-1046.8489	-648.22028	109.35194	-1107.7139	-727.30463	107.16614	-1182.3975
350	1.74	-472.38544	127.28552	-585.11792	-527.06775	127.80665	-565.30176	-503.88086	579.82294	-521.58905	-601.00342	525.62799	-552.69598	-534.74213	985.98291	-700.76746	-752.4953	988.77643	-979.42206	-721.56708	512.70251	-948.04919	-759.867	548.58331	-1045.303	-648.19293	109.21208	-1107.4945	-727.00421	108.29259	-1182.2417
351	1.745	-473.11572	127.73013	-584.7243	-527.75031	128.336	-564.685	-502.63858	580.30182	-518.48285	-600.24951	526.34149	-548.90662	-533.67261	985.52106	-699.21167	-751.99561	988.13525	-976.67578	-721.06439	512.33087	-947.14355	-759.39862	548.34039	-1044.3026	-648.1344	109.09557	-1107.2303	-726.86743	108.27725	-1182.0784
352	1.75	-473.91403	128.13655	-584.41736	-528.37415	128.87889	-564.05066	-501.33347	580.73907	-515.34851	-599.41125	527.09747	-545.02344	-532.49695	984.95197	-697.60052	-750.76575	988.13483	-975.8952	-720.56165	511.90866	-946.13947	-759.06024	548.26465	-1043.4673	-648.01379	108.97044	-1106.9714	-726.91418	107.70567	-1181.8173
353	1.755	-474.61935	128.69054	-584.08026	-529.00793	129.44693	-563.17706	-499.99081	581.13977	-512.1239	-598.6391	527.76086	-541.15857	-531.30536	984.36713	-695.93658	-749.93951	987.60669	-973.97137	-720.14746	511.5155	-945.01019	-758.70569	548.26508	-1042.7396	-647.87549	108.84782	-1106.733	-726.76733	107.71438	-1181.6053
354	1.76	-475.38062	129.11246	-583.70648	-529.57855	129.93831	-562.33862	-498.62207	581.48987	-508.89044	-597.74298	528.52039	-537.15692	-530.05756	983.70471	-694.30353	-749.1142	987.099	-971.9903	-719.66333	511.01208	-943.88916	-758.19043	547.95386	-1041.5081	-647.75519	108.75547	-1106.4512	-726.49615	108.89222	-1181.5626
355	1.765	-476.24017	129.54594	-583.2876	-530.27301	130.45937	-561.63818	-497.18735	581.80396	-505.621	-596.84583	529.1524	-533.18085	-528.80872	983.00928	-692.66571	-748.06152	986.8147	-970.18048	-719.28546	510.55508	-942.86505	-757.67816	547.69446	-1040.167	-647.71021	108.68388	-1106.1079	-726.36414	108.93729	-1181.4114
356	1.77	-477.08771	130.02428	-582.86432	-530.94623	131.03279	-560.80859	-495.75589	582.10834	-502.31934	-595.90936	529.78082	-529.25751	-527.52698	982.29871	-690.90753	-747.14044	986.29639	-967.99817	-718.66626	510.11264	-941.7547	-757.32233	547.48871	-1039.0382	-647.58112	108.58063	-1105.9099	-726.1925	109.14028	-1181.1134
357	1.775	-477.97583	130.41277	-582.43756	-531.69952	131.57748	-559.95868	-494.30328	582.32697	-499.03729	-594.96307	530.40356	-525.25092	-526.15277	981.51471	-689.16602	-746.16205	985.79602	-966.17981	-718.6604	509.58145	-940.39966	-756.91943	547.2522	-1037.6625	-647.57129	108.48608	-1105.5779	-726.12445	109.19333	-1180.9023
358	1.78	-478.85175	130.97581	-581.92255	-532.47607	132.07507	-559.16144	-492.80893	582.52606	-495.67465	-593.98572	530.96411	-521.18195	-524.83545	980.64972	-687.3338	-745.15228	985.55231	-963.73291	-718.37537	509.04285	-939.0517	-756.7489	547.10858	-1036.6503	-647.41547	108.41656	-1105.2878	-725.9549	109.32588	-1180.6433
359	1.785	-479.91687	131.31917	-581.31451	-533.25983	132.57687	-558.15717	-491.2973	582.63391	-492.28262	-592.90442	531.49933	-517.07471	-523.45551	979.78937	-685.47345	-744.17236	985.12042	-961.29297	-717.92633	508.56644	-937.81378	-756.57159	546.91193	-1035.3129	-647.34528	108.36211	-1104.9888	-725.68335	109.45177	-1180.0796
360	1.79	-481.03497	131.744	-580.76074	-534.15833	133.03229	-557.2876	-489.78552	582.7525	-488.94083	-591.8465	532.03687	-512.93622	-521.97205	978.87695	-683.56415	-743.1651	984.52716	-959.24365	-717.63257	507.87234	-937.29755	-756.4541	546.73669	-1034.1329	-647.26819	108.2185	-1104.6393	-725.70837	108.74163	-1179.7227
361	1.795	-482.15271	132.22522	-580.08569	-535.18274	133.59686	-556.26208	-488.19604	582.83813	-485.61584	-590.79199	532.49927	-508.82559	-520.50146	977.93127	-681.62659	-742.20337	984.133	-957.07159	-717.94617	507.44598	-934.87183	-756.36761	546.3877	-1032.5391	-647.10571	108.16325	-1104.2391	-725.42377	109.69228	-1179.4077
